# xmcd CD database file
# Copyright (C) 1993-1998 Ti Kan
#
# Track frame offsets:
#  150
#  33075
#  59705
#  81352
#  120265
#  145862
#  161175
#  180542
#  213490
#  242817
#
# Disc length: 3840 seconds
#
# Revision: 1
# Processed by: cddbd v1.4PL0 Copyright (c) Steve Scherf et al.
# Submitted via: KiC 2.1 - (C) 1996-1998 Alwin Hoogerdijk
#
DISCID=8a0efe0a
DTITLE=Otis Rush and His Band - Blues Interaction Live In Japan 1986
DYEAR=1996
DGENRE=Blues
TTITLE0=Introduction/Tops
TTITLE1=All Your Love
TTITLE2=Please, Please, Please
TTITLE3=Killing Floor
TTITLE4=Stand By Me
TTITLE5=Lonely Man
TTITLE6=Double Trouble
TTITLE7=Right Place, Wrong Time
TTITLE8=Got My Mojo Working
TTITLE9=Gambler's Blues (encore)
EXTD=
EXTT0=
EXTT1=
EXTT2=
EXTT3=
EXTT4=
EXTT5=
EXTT6=
EXTT7=
EXTT8=
EXTT9=
PLAYORDER=
